<svg xmlns="http://www.w3.org/2000/svg" viewBox="0 0 1200 1000" role="img" aria-labelledby="deployment-title deployment-description">
  <title id="deployment-title">费用申报系统 Deployment 教学演练假设拓扑</title>
  <desc id="deployment-description">教学演练假设拓扑：Container 实例映射到部署节点；不代表生产事实，也不证明容量、冗余、韧性或故障切换。</desc>
  <defs>
    <marker id="deployment-arrow" markerUnits="strokeWidth" markerWidth="10" markerHeight="10" viewBox="0 0 10 10" refX="8" refY="5" orient="auto">
      <path d="M0 0L10 5L0 10Z" fill="#263238"/>
    </marker>
    <style>
      text{font-family:-apple-system,BlinkMacSystemFont,"Segoe UI","PingFang SC","Microsoft YaHei",sans-serif;fill:#263238}
      .heading{font-size:36px;font-weight:760}.note{font-size:21px;fill:#6c6861}
      .boundary-title{font-size:30px;font-weight:760}.node-title{font-size:24px;font-weight:720}
      .node-type{font-size:15px;font-weight:700;letter-spacing:.7px;fill:#55514b}
      .edge-label{font-size:23px;font-weight:650;fill:#55514b}.legend{font-size:18px;font-weight:650}
    </style>
  </defs>
  <path d="M0 0H1200V1000H0Z" fill="#F6F1E7"/>
  <text x="44" y="64" class="heading">费用申报系统 Deployment 教学演练假设拓扑</text>
  <text x="44" y="102" class="note">教学演练假设拓扑：Container 实例映射到部署节点；不代表生产事实，也不证明容量、冗余、韧性或故障切换。</text>
  <path data-boundary-id="production" data-boundary-name="生产环境" data-boundary-bounds="10 130 960 800" d="M24 130H956Q970 130 970 144V916Q970 930 956 930H24Q10 930 10 916V144Q10 130 24 130Z" fill="#FBF8F1" stroke="#405D6B" stroke-width="3" stroke-dasharray="11 8"/>
  <text x="60" y="178" class="boundary-title">生产环境</text>

  <g aria-label="图例">
    <rect x="310" y="151" width="28" height="22" rx="4" fill="#F0EDE7" stroke="#77716A" stroke-width="3"/><text x="348" y="170" class="legend">部署节点</text>
    <rect x="455" y="151" width="28" height="22" rx="4" fill="#D9E5DA" stroke="#64806B" stroke-width="2"/><text x="493" y="170" class="legend">容器实例</text>
    <rect x="610" y="151" width="28" height="22" rx="4" fill="#F2E9D6" stroke="#8B7855" stroke-width="3"/><text x="648" y="170" class="legend">基础设施节点</text>
    <rect x="815" y="151" width="28" height="22" rx="4" fill="#ECE8E1" stroke="#77716A" stroke-width="2"/><text x="853" y="170" class="legend">外部系统</text>
  </g>

  <g data-node-id="employee-terminal" data-boundary-id="production" data-node-bounds="20 300 170 170">
    <path d="M34 300H176Q190 300 190 314V456Q190 470 176 470H34Q20 470 20 456V314Q20 300 34 300Z" fill="#ECE8E1" stroke="#77716A" stroke-width="3"/>
    <text x="105" y="355" text-anchor="middle" class="node-title" data-text-role="title">员工终端</text>
    <text x="105" y="397" text-anchor="middle" class="node-type" data-text-role="type">部署节点</text>
  </g>
  <g data-node-id="web-node" data-boundary-id="production" data-node-bounds="210 270 220 250">
    <path d="M224 270H416Q430 270 430 284V506Q430 520 416 520H224Q210 520 210 506V284Q210 270 224 270Z" fill="#F0EDE7" stroke="#77716A" stroke-width="3"/>
    <text x="320" y="315" text-anchor="middle" class="node-title" data-text-role="title">Web 节点</text>
    <text x="320" y="357" text-anchor="middle" class="node-type" data-text-role="type">部署节点</text>
  </g>
  <g data-node-id="web-instance" data-boundary-id="production" data-node-bounds="220 370 200 140">
    <path d="M232 370H408Q420 370 420 382V498Q420 510 408 510H232Q220 510 220 498V382Q220 370 232 370Z" fill="#D9E5DA" stroke="#64806B" stroke-width="2"/>
    <text x="320" y="425" text-anchor="middle" class="node-title" data-text-role="title">Web 应用实例</text>
    <text x="320" y="467" text-anchor="middle" class="node-type" data-text-role="type">容器实例</text>
  </g>
  <g data-node-id="api-node" data-boundary-id="production" data-node-bounds="450 270 220 250">
    <path d="M464 270H656Q670 270 670 284V506Q670 520 656 520H464Q450 520 450 506V284Q450 270 464 270Z" fill="#F0EDE7" stroke="#77716A" stroke-width="3"/>
    <text x="560" y="315" text-anchor="middle" class="node-title" data-text-role="title">API 节点</text>
    <text x="560" y="357" text-anchor="middle" class="node-type" data-text-role="type">部署节点</text>
  </g>
  <g data-node-id="api-instance" data-boundary-id="production" data-node-bounds="460 370 200 140">
    <path d="M472 370H648Q660 370 660 382V498Q660 510 648 510H472Q460 510 460 498V382Q460 370 472 370Z" fill="#D9E5DA" stroke="#64806B" stroke-width="2"/>
    <text x="560" y="425" text-anchor="middle" class="node-title" data-text-role="title">申报 API 实例</text>
    <text x="560" y="467" text-anchor="middle" class="node-type" data-text-role="type">容器实例</text>
  </g>
  <g data-node-id="db-node" data-boundary-id="production" data-node-bounds="700 270 248 250">
    <path d="M714 270H934Q948 270 948 284V506Q948 520 934 520H714Q700 520 700 506V284Q700 270 714 270Z" fill="#F2E9D6" stroke="#8B7855" stroke-width="3"/>
    <text x="824" y="315" text-anchor="middle" class="node-title" data-text-role="title">数据库节点</text>
    <text x="824" y="357" text-anchor="middle" class="node-type" data-text-role="type">部署节点</text>
  </g>
  <g data-node-id="db-instance" data-boundary-id="production" data-node-bounds="714 370 220 140">
    <path d="M714 395C714 381 764 370 824 370S934 381 934 395V485C934 499 884 510 824 510S714 499 714 485Z" fill="#E8E1CF" stroke="#8B7855" stroke-width="2"/>
    <path d="M714 395C714 409 764 420 824 420S934 409 934 395" fill="none" stroke="#8B7855" stroke-width="2"/>
    <text x="824" y="425" text-anchor="middle" class="node-title" data-text-role="title">申报数据库实例</text>
    <text x="824" y="467" text-anchor="middle" class="node-type" data-text-role="type">容器实例</text>
  </g>
  <g data-node-id="task-node" data-boundary-id="production" data-node-bounds="550 610 300 280">
    <path d="M564 610H836Q850 610 850 624V876Q850 890 836 890H564Q550 890 550 876V624Q550 610 564 610Z" fill="#F0EDE7" stroke="#77716A" stroke-width="3"/>
    <text x="700" y="655" text-anchor="middle" class="node-title" data-text-role="title">任务执行节点</text>
    <text x="700" y="697" text-anchor="middle" class="node-type" data-text-role="type">部署节点</text>
  </g>
  <g data-node-id="worker-instance" data-boundary-id="production" data-node-bounds="565 720 270 150">
    <path d="M577 720H823Q835 720 835 732V858Q835 870 823 870H577Q565 870 565 858V732Q565 720 577 720Z" fill="#D9E5DA" stroke="#64806B" stroke-width="2"/>
    <text x="700" y="775" text-anchor="middle" class="node-title" data-text-role="title">支付任务执行器实例</text>
    <text x="700" y="817" text-anchor="middle" class="node-type" data-text-role="type">容器实例</text>
  </g>
  <g data-node-id="bank" data-node-bounds="998 650 182 150">
    <path d="M1012 650H1166Q1180 650 1180 664V786Q1180 800 1166 800H1012Q998 800 998 786V664Q998 650 1012 650Z" fill="#ECE8E1" stroke="#77716A" stroke-width="2"/>
    <text x="1089" y="705" text-anchor="middle" class="node-title" data-text-role="title" style="font-size:22.5px">银行支付服务</text>
    <text x="1089" y="747" text-anchor="middle" class="node-type" data-text-role="type">外部系统</text>
  </g>

  <path data-edge-id="edge-employee-web" data-source="employee-terminal" data-target="web-instance" d="M191 425H200V590H205V440H217" fill="none" stroke="#263238" stroke-width="2.4" marker-end="url(#deployment-arrow)"/>
  <text x="110" y="565" text-anchor="middle" class="edge-label" data-edge-id="edge-employee-web" data-label-bounds="64.012 542.491 91.976 27" data-stroke-clearance-css="8" data-arrow-clearance-css="16" data-node-clearance-css="12" data-max-association-css="60">访问页面</text>
  <path data-edge-id="edge-web-api" data-source="web-instance" data-target="api-instance" d="M421 440H435V590H445V440H457" fill="none" stroke="#263238" stroke-width="2.4" marker-end="url(#deployment-arrow)"/>
  <text x="345" y="565" text-anchor="middle" class="edge-label" data-edge-id="edge-web-api" data-label-bounds="299.012 542.491 91.976 27" data-stroke-clearance-css="8" data-arrow-clearance-css="16" data-node-clearance-css="12" data-max-association-css="60">提交申报</text>
  <path data-edge-id="edge-api-db" data-source="api-instance" data-target="db-instance" d="M661 440H680V590H695V440H711" fill="none" stroke="#263238" stroke-width="2.4" marker-end="url(#deployment-arrow)"/>
  <text x="590" y="565" text-anchor="middle" class="edge-label" data-edge-id="edge-api-db" data-label-bounds="544.012 542.491 91.976 27" data-stroke-clearance-css="8" data-arrow-clearance-css="16" data-node-clearance-css="12" data-max-association-css="60">读写申报</text>
  <path data-edge-id="edge-api-task" data-source="api-instance" data-target="worker-instance" d="M560 511V540H530V680H600V717" fill="none" stroke="#263238" stroke-width="2.4" marker-end="url(#deployment-arrow)"/>
  <text x="445" y="620" text-anchor="middle" class="edge-label" data-edge-id="edge-api-task" data-label-bounds="376.012 597.491 137.976 27" data-stroke-clearance-css="8" data-arrow-clearance-css="16" data-node-clearance-css="12" data-max-association-css="60">发布付款任务</text>
  <path data-edge-id="edge-task-bank" data-source="worker-instance" data-target="bank" d="M836 795H995" fill="none" stroke="#263238" stroke-width="2.4" marker-end="url(#deployment-arrow)"/>
  <text x="915.5" y="850" text-anchor="middle" class="edge-label" data-edge-id="edge-task-bank" data-label-bounds="869.512 827.491 91.976 27" data-stroke-clearance-css="8" data-arrow-clearance-css="16" data-node-clearance-css="12" data-max-association-css="60">发起付款</text>
</svg>
